<svg width="71" height="88" viewBox="0 0 71 88" fill="none" xmlns="http://www.w3.org/2000/svg">
<g clip-path="url(#clip0_160_3085)">
<path d="M66.4137 29.2819V31.0657H61.2795C61.1059 28.7696 58.9356 26.9487 56.2879 26.9487C52.8527 26.9487 49.5539 29.9115 48.5742 30.8682C47.5015 29.7387 46.6396 28.4548 46.0381 27.066C46.0319 27.0537 46.0257 27.0413 46.0195 27.029C46.0133 27.0166 46.0133 27.0043 46.0071 26.9981C45.4429 25.5908 45.139 24.0786 45.0956 22.5231C46.4784 22.4984 50.9491 22.2392 53.3364 19.869C54.2789 18.9308 54.837 17.7271 54.9238 16.4803C54.9982 15.3261 54.6509 14.2583 53.9441 13.4435L57.5777 9.82647L58.8426 11.0856L59.2643 10.6659L56.3065 7.71551L55.8849 8.13523L57.1498 9.3944L53.5162 13.0114C51.7614 11.5115 48.9339 11.7523 47.0613 13.6102C44.6306 16.0297 44.4011 20.443 44.3887 21.8133C42.8262 21.7701 41.307 21.4676 39.8932 20.9059C39.8808 20.8998 39.8684 20.8998 39.856 20.8936C39.8436 20.8874 39.8312 20.8813 39.825 20.8813C38.4298 20.2825 37.1401 19.4246 35.9992 18.3567C36.9541 17.3753 39.9366 14.0422 39.9366 10.6783C39.9366 8.04264 38.1074 5.8823 35.8007 5.70948V0.592551H37.5927V0H33.4135V0.592551H35.2055V5.7033C32.8988 5.87613 31.0696 8.03647 31.0696 10.6721C31.0696 14.0916 34.0459 17.3753 35.007 18.3506C33.8661 19.4184 32.5826 20.2764 31.1874 20.8751C31.175 20.8813 31.1626 20.8874 31.1564 20.8874C31.1502 20.8874 31.1316 20.8936 31.1254 20.8998C29.7116 21.4615 28.1924 21.7639 26.6299 21.8071C26.6113 20.4368 26.3508 15.9865 23.9635 13.604C23.021 12.6658 21.8119 12.1103 20.5593 12.0238C19.3998 11.9498 18.3271 12.2954 17.5086 12.9991L13.875 9.38206L15.1399 8.12289L14.7183 7.70316L11.7605 10.6474L12.1822 11.0671L13.4471 9.80795L17.0807 13.425C16.3739 14.2397 16.0266 15.3076 16.101 16.4618C16.1816 17.7086 16.7459 18.9123 17.6884 19.8505C20.1191 22.27 24.5526 22.4984 25.9292 22.5108C25.8858 24.0662 25.5819 25.5785 25.0177 26.9858C25.0115 26.9981 25.0115 27.0104 25.0053 27.0228C24.9991 27.0351 24.9929 27.0413 24.9929 27.0537C24.3914 28.4486 23.5295 29.7325 22.4568 30.862C21.4709 29.9115 18.1225 26.9426 14.7431 26.9426C12.0954 26.9426 9.9251 28.7634 9.75148 31.0595H4.59868V29.2757H3.99721V33.4359H4.59248V31.6521H9.72668C9.9003 33.9482 12.0706 35.7691 14.7183 35.7691C18.1535 35.7691 21.4523 32.8063 22.432 31.8496C23.5047 32.9853 24.3666 34.263 24.9681 35.658C24.9743 35.6703 24.9805 35.6765 24.9805 35.6889C24.9867 35.7012 24.9867 35.7135 24.9929 35.7259C25.5571 37.1332 25.861 38.6454 25.9044 40.2009C24.5278 40.2256 20.0571 40.4786 17.6636 42.855C16.7211 43.7932 16.163 44.9968 16.0762 46.2437C16.0018 47.3979 16.3491 48.4657 17.0559 49.2805L13.4223 52.8975L12.1574 51.6384L11.7357 52.0581L14.6935 55.0023L15.1151 54.5826L13.8502 53.3234L17.4838 49.7064C18.2279 50.3483 19.1828 50.694 20.2245 50.694C20.3299 50.694 20.4291 50.6878 20.5345 50.6816C21.7871 50.6014 22.9962 50.0397 23.9387 49.1015C26.3694 46.6819 26.5989 42.2686 26.6113 40.8984C28.1738 40.9416 29.693 41.244 31.1068 41.8057C31.1192 41.8119 31.1316 41.8119 31.1378 41.8181C31.1502 41.8242 31.1626 41.8304 31.1688 41.8366C32.564 42.4353 33.8537 43.2933 34.9946 44.3611C34.0397 45.3425 31.0572 48.6756 31.0572 52.0396C31.0572 54.6752 32.8864 56.8355 35.1931 57.0083V62.1191H33.4011V62.7116H37.5803V62.1191H35.7883V57.0083C38.095 56.8355 39.9242 54.6752 39.9242 52.0396C39.9242 48.62 36.9479 45.3363 35.9868 44.3611C37.1215 43.2933 38.4112 42.4353 39.8064 41.8366C39.8188 41.8304 39.8312 41.8242 39.8436 41.8181C39.856 41.8119 39.8684 41.8119 39.8746 41.8057C41.2884 41.244 42.8076 40.9416 44.3763 40.8984C44.3949 42.2686 44.6554 46.7189 47.0427 49.1015C48.0968 50.1508 49.4547 50.6878 50.7569 50.6878C51.7676 50.6878 52.7349 50.3607 53.5038 49.7064L57.1374 53.3234L55.8725 54.5826L56.3065 55.0023L59.2643 52.0581L58.8426 51.6384L57.5777 52.8975L53.9441 49.2805C54.6509 48.4657 54.9982 47.3979 54.9238 46.2437C54.8432 44.9968 54.2789 43.7932 53.3364 42.855C50.9057 40.4354 46.4722 40.2071 45.0956 40.1947C45.139 38.6393 45.4429 37.127 46.0071 35.7197C46.0133 35.7074 46.0133 35.695 46.0195 35.6827C46.0257 35.6703 46.0319 35.6642 46.0319 35.6518C46.6334 34.2569 47.4953 32.9792 48.568 31.8434C49.5539 32.794 52.9023 35.7629 56.2817 35.7629C58.9294 35.7629 61.0997 33.9421 61.2733 31.6459H66.4075V33.4298H67.0028V29.2695L66.4137 29.2819ZM44.4073 40.2194H44.3949V40.2256C42.7579 40.2873 41.1706 40.6391 39.6824 41.2564C39.6638 41.2625 39.6452 41.2687 39.6204 41.2811C39.6018 41.2872 39.5894 41.2996 39.5708 41.3057C38.0764 41.9106 36.706 42.7871 35.5031 43.892L35.4969 43.8858L35.4907 43.892C34.2878 42.7809 32.9174 41.9106 31.423 41.3057C31.4044 41.2996 31.3858 41.2872 31.3672 41.2811C31.3486 41.2749 31.33 41.2687 31.3114 41.2625C29.8294 40.6391 28.2358 40.2935 26.5989 40.2317V40.2194H26.5927C26.5306 38.5899 26.1772 37.0036 25.5571 35.5284C25.5509 35.5099 25.5447 35.4913 25.5385 35.4728C25.5323 35.4543 25.5199 35.4358 25.5137 35.4173C24.9061 33.9359 24.0256 32.5656 22.9156 31.3682L22.9218 31.362L22.9156 31.3558C24.0318 30.1584 24.9061 28.7943 25.5137 27.3067C25.5199 27.2882 25.5323 27.2697 25.5385 27.2512C25.5447 27.2327 25.5509 27.2141 25.5571 27.1956C26.1834 25.7204 26.5306 24.1341 26.5927 22.5046H26.6051V22.4984C28.242 22.4367 29.8294 22.0849 31.3176 21.4676C31.3362 21.4615 31.3548 21.4553 31.3734 21.4491C31.392 21.4429 31.4106 21.4306 31.4292 21.4244C32.9174 20.8195 34.294 19.943 35.4969 18.8382L35.5031 18.8444L35.5093 18.8382C36.7122 19.9492 38.0826 20.8195 39.577 21.4244C39.5956 21.4306 39.6142 21.4429 39.6328 21.4491C39.6514 21.4553 39.67 21.4615 39.6886 21.4676C41.1706 22.091 42.7642 22.4367 44.4011 22.4984V22.5108H44.4073C44.4693 24.1403 44.8228 25.7204 45.4429 27.2018C45.4491 27.2203 45.4553 27.2388 45.4677 27.2573C45.4739 27.2759 45.4863 27.2944 45.4925 27.3067C46.1001 28.7943 46.9806 30.1584 48.0906 31.3558L48.0844 31.362L48.0906 31.3682C46.9744 32.5656 46.1001 33.9297 45.4925 35.4173C45.4863 35.4358 45.4739 35.4543 45.4677 35.4666C45.4615 35.4852 45.4553 35.5037 45.4491 35.5222C44.8166 37.0036 44.4693 38.5899 44.4073 40.2194ZM52.0032 20.1652C49.616 21.733 46.0195 21.9059 44.984 21.9244C44.9902 20.8936 45.139 17.3383 46.7512 14.9372L47.1109 14.4496C47.2287 14.3015 47.3527 14.1657 47.4829 14.0299C48.4192 13.0978 49.6284 12.6164 50.7755 12.6164C51.7304 12.6164 52.6419 12.9497 53.3178 13.6287C54.8122 15.1162 54.6323 17.721 52.9085 19.4369C52.7783 19.5665 52.6357 19.69 52.4869 19.8073L52.0032 20.1652ZM39.2173 11.8325C38.6469 14.6224 36.2224 17.2766 35.5031 18.0173C34.7776 17.2827 32.3531 14.6656 31.7889 11.8325L31.6959 11.24C31.6773 11.0548 31.6648 10.8696 31.6648 10.6844C31.6648 8.25868 33.3887 6.28968 35.5031 6.28968C37.6175 6.28968 39.3414 8.25868 39.3414 10.6844C39.3414 10.8696 39.3289 11.0548 39.3103 11.24L39.2173 11.8325ZM24.255 14.9372C25.83 17.3136 26.0036 20.8936 26.0222 21.9244C24.9867 21.9182 21.4088 21.7701 19.003 20.1652L18.5193 19.8073C18.3705 19.69 18.2341 19.5665 18.0977 19.4369C16.3739 17.721 16.194 15.1162 17.6884 13.6287C18.3705 12.9497 19.282 12.6164 20.2307 12.6164C21.3778 12.6164 22.5808 13.0978 23.5233 14.0299C23.6535 14.1595 23.7775 14.3015 23.8953 14.4496L24.255 14.9372ZM15.2825 35.1519C15.0965 35.1704 14.9105 35.1827 14.7245 35.1827C12.2876 35.1827 10.3095 33.4668 10.3095 31.362C10.3095 29.2572 12.2876 27.5413 14.7245 27.5413C14.9105 27.5413 15.0965 27.5536 15.2825 27.5721L15.8778 27.6647C18.6805 28.2388 21.3468 30.646 22.0909 31.362C21.353 32.0842 18.7239 34.4976 15.8778 35.0593L15.2825 35.1519ZM23.8953 48.2744C23.7775 48.4225 23.6535 48.5583 23.5233 48.6941C21.7995 50.41 19.1828 50.589 17.6884 49.1015C16.194 47.6139 16.3739 45.0092 18.0977 43.2933C18.2279 43.1636 18.3705 43.0402 18.5193 42.9229L19.003 42.5649C21.3902 40.9971 24.9867 40.8243 26.0222 40.8058C26.016 41.8366 25.8672 45.3919 24.255 47.7929L23.8953 48.2744ZM39.3103 51.4902C39.3289 51.6754 39.3414 51.8606 39.3414 52.0457C39.3414 54.4715 37.6175 56.4405 35.5031 56.4405C33.4445 56.4405 31.7641 54.5764 31.6711 52.2494C31.6711 52.1815 31.6648 52.1136 31.6648 52.0457C31.6648 51.8606 31.6773 51.6754 31.6959 51.4902L31.7889 50.8977C32.3593 48.1077 34.7838 45.4598 35.5031 44.7129C36.2286 45.4474 38.6531 48.0707 39.2173 50.8977L39.3103 51.4902ZM46.7512 47.7868C45.1762 45.4104 45.0026 41.8304 44.984 40.7996C46.0195 40.8058 49.5911 40.9539 52.0032 42.5587L52.4931 42.9167C52.6419 43.034 52.7783 43.1575 52.9147 43.2871C54.6385 45.003 54.8184 47.6078 53.324 49.0953C51.8296 50.5829 49.2129 50.4039 47.4891 48.6879C47.3589 48.5583 47.2349 48.4164 47.1171 48.2682L46.7512 47.7868ZM55.1222 35.0593C52.3195 34.4914 49.6532 32.078 48.9091 31.362C49.647 30.6398 52.2761 28.2264 55.1222 27.6647L55.7175 27.5721C55.9035 27.5536 56.0895 27.5413 56.2755 27.5413C58.7124 27.5413 60.6905 29.2572 60.6905 31.362C60.6905 33.4668 58.7124 35.1827 56.2755 35.1827C56.0895 35.1827 55.9035 35.1704 55.7175 35.1519L55.1222 35.0593Z" fill="white"/>
<path d="M34.2816 6.91927C34.2133 7.10445 34.1513 7.30196 34.0707 7.48096C33.9467 7.77107 33.7855 8.04883 33.6801 8.3451C33.2894 9.44379 33.9467 10.7215 35.0566 11.0733C35.0814 11.0795 35.1125 11.0856 35.1497 11.098C35.1497 10.919 35.1435 10.7462 35.1497 10.5795C35.1683 10.2092 35.2923 9.86351 35.4535 9.5302C35.5403 9.35738 35.6271 9.19072 35.7015 9.01789C35.7759 8.84507 35.8317 8.66607 35.8937 8.48707C36.148 8.78334 36.2844 9.13517 36.334 9.52403C37.0967 9.1722 37.5803 7.97476 36.7928 6.98717C36.9045 7.06124 37.0223 7.12914 37.1215 7.20938C38.0392 7.96858 38.3864 8.92531 38.1198 10.0857C38.0206 10.5301 37.8842 10.956 37.7726 11.4004C37.6858 11.7584 37.6734 12.1164 37.7416 12.5053C37.2827 12.388 36.9231 12.1473 36.6254 11.8016C36.3278 11.456 36.148 11.061 36.055 10.6165C36.0736 10.8079 36.0798 11.0054 36.1232 11.1906C36.241 11.7029 36.5076 12.1411 36.9107 12.4868C36.9541 12.5238 36.9851 12.5547 36.9665 12.6226C36.6874 13.604 36.1108 14.357 35.2241 14.8693C35.1993 14.8817 35.1745 14.894 35.1373 14.9125C35.1187 14.7891 35.1001 14.678 35.0752 14.5607C34.945 13.7768 34.5978 13.0979 34.1079 12.4806C33.8289 12.1288 33.5375 11.7831 33.2832 11.4128C32.7686 10.6598 32.533 9.82648 32.6818 8.91913C32.7872 8.2772 33.0972 7.7402 33.5933 7.32048C33.7855 7.15383 34.0149 7.02421 34.2195 6.87607C34.2506 6.89459 34.263 6.90693 34.2816 6.91927Z" fill="#C21B1A"/>
<path d="M51.997 13.2151C51.8172 13.3015 51.6374 13.3879 51.4514 13.4682C51.1599 13.5855 50.8499 13.6719 50.5647 13.8077C49.5105 14.3138 49.0641 15.6717 49.6036 16.7025C49.616 16.7272 49.6346 16.7519 49.6532 16.7828C49.7834 16.6593 49.895 16.5297 50.0252 16.4186C50.3042 16.1717 50.6329 16.0112 50.9863 15.8939C51.1661 15.8322 51.3522 15.7767 51.5258 15.7088C51.6994 15.6409 51.8668 15.5545 52.0404 15.4742C52.0094 15.8631 51.8606 16.2087 51.6126 16.5174C52.4063 16.8013 53.5968 16.3013 53.7332 15.0483C53.758 15.1779 53.7952 15.3076 53.8076 15.4372C53.9193 16.6161 53.479 17.542 52.4683 18.1777C52.0838 18.4185 51.6808 18.6283 51.2901 18.8629C50.9739 19.0542 50.7135 19.3011 50.4841 19.6221C50.2422 19.2147 50.1616 18.795 50.1926 18.3444C50.2298 17.8938 50.3786 17.4864 50.6329 17.1037C50.5089 17.258 50.3724 17.3938 50.2732 17.5605C49.9942 18.0111 49.864 18.4987 49.9074 19.0295C49.9136 19.0851 49.9136 19.1283 49.8516 19.1653C48.9587 19.6591 48.0162 19.7887 47.024 19.5295C46.9992 19.5233 46.9682 19.511 46.931 19.4986C47.0054 19.3999 47.0737 19.3011 47.1419 19.2085C47.6069 18.5666 47.8425 17.8382 47.9356 17.0543C47.9852 16.6099 48.0224 16.1594 48.1092 15.7149C48.2766 14.8199 48.7044 14.0669 49.4547 13.5299C49.9818 13.1472 50.5833 12.9867 51.2343 13.0423C51.4886 13.0608 51.7366 13.1287 51.9908 13.1719C51.9908 13.1719 51.9908 13.1966 51.997 13.2151Z" fill="#C21B1A"/>
<path d="M60.0456 30.1399C59.8596 30.072 59.6611 30.0102 59.4813 29.93C59.1899 29.8065 58.9108 29.6461 58.6132 29.5411C57.5095 29.1523 56.2259 29.8065 55.8725 30.9114C55.8663 30.9361 55.8601 30.967 55.8477 31.004C56.0275 31.004 56.2011 30.9978 56.3685 31.004C56.7406 31.0225 57.0878 31.146 57.4227 31.3064C57.5963 31.3929 57.7637 31.4793 57.9373 31.5533C58.1109 31.6274 58.2908 31.683 58.4706 31.7447C58.173 31.9977 57.8195 32.1335 57.4289 32.1829C57.7823 32.9421 58.9853 33.4236 59.9774 32.6397C59.903 32.7508 59.8348 32.8681 59.7541 32.9668C58.9915 33.8803 58.0303 34.226 56.8646 33.9606C56.4182 33.8618 55.9903 33.726 55.5438 33.6149C55.1842 33.5285 54.8246 33.5162 54.4339 33.5841C54.5517 33.1273 54.7936 32.7693 55.1408 32.473C55.488 32.1767 55.8849 31.9977 56.3313 31.9052C56.1391 31.9237 55.9407 31.9298 55.7547 31.9731C55.24 32.0903 54.7998 32.3557 54.4525 32.757C54.4153 32.8002 54.3843 32.831 54.3161 32.8125C53.3302 32.5347 52.5737 31.9607 52.059 31.0781C52.0466 31.0534 52.0342 31.0287 52.0156 30.9916C52.1397 30.9731 52.2513 30.9546 52.3691 30.9299C53.1566 30.8003 53.8386 30.4546 54.4587 29.967C54.8122 29.6893 55.1594 29.3992 55.5314 29.1461C56.2879 28.6338 57.125 28.3992 58.0365 28.5474C58.6814 28.6523 59.2209 28.9609 59.6425 29.4547C59.8099 29.6461 59.9402 29.8744 60.089 30.0781C60.0766 30.109 60.0642 30.1213 60.0456 30.1399Z" fill="#C21B1A"/>
<path d="M53.7208 47.7744C53.634 47.5954 53.5472 47.4164 53.4666 47.2312C53.3488 46.9411 53.262 46.6325 53.1256 46.3486C52.6171 45.2993 51.2529 44.8549 50.2174 45.3919C50.1926 45.4042 50.1678 45.4227 50.1368 45.4413C50.2608 45.5709 50.391 45.682 50.5027 45.8116C50.7507 46.0894 50.9119 46.4165 51.0297 46.7683C51.0917 46.9473 51.1475 47.1325 51.2157 47.3053C51.284 47.4781 51.3708 47.6448 51.4514 47.8176C51.0607 47.7868 50.7135 47.6386 50.4035 47.3917C50.1182 48.1818 50.6205 49.3669 51.8792 49.5027C51.749 49.5274 51.6188 49.5644 51.4886 49.5768C50.3042 49.6879 49.3741 49.2496 48.7355 48.2435C48.4936 47.8608 48.2828 47.4596 48.0472 47.0708C47.855 46.756 47.6069 46.4967 47.2845 46.2684C47.6937 46.0276 48.1154 45.9474 48.568 45.9782C49.0207 46.0153 49.4299 46.1634 49.8144 46.4165C49.6594 46.293 49.5229 46.1573 49.3555 46.0585C48.9029 45.7807 48.413 45.6511 47.8798 45.6943C47.8239 45.7005 47.7805 45.7005 47.7433 45.6388C47.2473 44.7499 47.1171 43.8117 47.3775 42.8241C47.3837 42.7995 47.3961 42.7686 47.4085 42.7316C47.5077 42.8056 47.6069 42.8735 47.6999 42.9414C48.3448 43.4044 49.0765 43.6389 49.864 43.7315C50.3104 43.7809 50.7631 43.8179 51.2095 43.9043C52.1086 44.071 52.8651 44.4969 53.4046 45.2437C53.789 45.7684 53.9503 46.3671 53.8945 47.0152C53.8759 47.2683 53.8076 47.5152 53.7642 47.7682C53.7642 47.7682 53.7394 47.7744 53.7208 47.7744Z" fill="#C21B1A"/>
<path d="M36.7246 55.7924C36.7928 55.6072 36.8549 55.4097 36.9355 55.2307C37.0595 54.9406 37.2207 54.6628 37.3261 54.3665C37.7168 53.2679 37.0595 51.9902 35.9495 51.6383C35.9247 51.6322 35.8937 51.626 35.8565 51.6136C35.8565 51.7926 35.8627 51.9655 35.8565 52.1321C35.8379 52.5025 35.7139 52.8481 35.5527 53.1814C35.4659 53.3543 35.3791 53.5209 35.3047 53.6937C35.2303 53.8666 35.1745 54.0456 35.1125 54.2246C34.8582 53.9283 34.7218 53.5765 34.6722 53.1876C33.9095 53.5394 33.4259 54.7369 34.2133 55.7245C34.1017 55.6504 33.9839 55.5825 33.8847 55.5023C32.967 54.7431 32.6198 53.7863 32.8864 52.6259C32.9856 52.1815 33.122 51.7556 33.2336 51.3112C33.3204 50.9532 33.3328 50.5952 33.2646 50.2063C33.7235 50.3236 34.0831 50.5643 34.3808 50.91C34.6784 51.2557 34.8582 51.6507 34.9512 52.0951C34.9326 51.9038 34.9264 51.7062 34.883 51.5211C34.7652 51.0088 34.4986 50.5705 34.0955 50.2249C34.0521 50.1878 34.0211 50.157 34.0397 50.0891C34.3188 49.1077 34.8954 48.3546 35.7821 47.8423C35.8069 47.83 35.8317 47.8176 35.8689 47.7991C35.8875 47.9226 35.9061 48.0337 35.9309 48.1509C36.0612 48.9348 36.4084 49.6138 36.8983 50.231C37.1773 50.5829 37.4687 50.9285 37.723 51.2989C38.2376 52.0519 38.4732 52.8852 38.3244 53.7925C38.219 54.4344 37.909 54.9714 37.4129 55.3912C37.2207 55.5578 36.9913 55.6874 36.7866 55.8356C36.7556 55.8171 36.737 55.8047 36.7246 55.7924Z" fill="#C21B1A"/>
<path d="M19.0092 49.4904C19.189 49.4039 19.3688 49.3175 19.5548 49.2373C19.8463 49.12 20.1563 49.0336 20.4415 48.8978C21.4957 48.3917 21.9421 47.0337 21.4026 46.003C21.3902 45.9783 21.3716 45.9536 21.353 45.9227C21.2228 46.0462 21.1112 46.1758 20.981 46.2869C20.702 46.5338 20.3733 46.6943 20.0199 46.8115C19.8401 46.8733 19.654 46.9288 19.4804 46.9967C19.3068 47.0646 19.1394 47.151 18.9658 47.2313C18.9968 46.8424 19.1456 46.4967 19.3936 46.1881C18.5999 45.9042 17.4094 46.4042 17.273 47.6572C17.2482 47.5275 17.211 47.3979 17.1986 47.2683C17.0869 46.0894 17.5272 45.1635 18.5317 44.5277C18.9162 44.287 19.3192 44.0772 19.7098 43.8426C20.0261 43.6513 20.2865 43.4044 20.5159 43.0834C20.7578 43.4908 20.8384 43.9105 20.8074 44.3611C20.7702 44.8117 20.6214 45.2191 20.3671 45.6017C20.4911 45.4474 20.6276 45.3116 20.7268 45.145C21.0058 44.6944 21.136 44.2068 21.0926 43.676C21.0864 43.6204 21.0864 43.5772 21.1484 43.5402C22.0413 43.0464 22.9838 42.9167 23.9759 43.176C24.0008 43.1822 24.0318 43.1945 24.069 43.2069C23.9945 43.3056 23.9263 43.4044 23.8581 43.497C23.3931 44.1389 23.1575 44.8672 23.0644 45.6511C23.0148 46.0955 22.9776 46.5461 22.8908 46.9905C22.7234 47.8855 22.2956 48.6386 21.5453 49.1756C21.0182 49.5583 20.4167 49.7187 19.7657 49.6632C19.5114 49.6447 19.2634 49.5768 19.0092 49.5336C19.0092 49.5336 19.0092 49.5089 19.0092 49.4904Z" fill="#C21B1A"/>
<path d="M10.9544 32.5718C11.1404 32.6397 11.3389 32.7014 11.5187 32.7816C11.8101 32.9051 12.0892 33.0656 12.3868 33.1705C13.4905 33.5594 14.7741 32.9051 15.1275 31.8002C15.1337 31.7755 15.1399 31.7447 15.1523 31.7076C14.9725 31.7076 14.7989 31.7138 14.6315 31.7076C14.2594 31.6891 13.9122 31.5657 13.5773 31.4052C13.4037 31.3188 13.2363 31.2324 13.0627 31.1583C12.889 31.0842 12.7092 31.0287 12.5294 30.967C12.827 30.7139 13.1805 30.5781 13.5711 30.5287C13.2177 29.7695 12.0147 29.2881 11.0226 30.072C11.097 29.9609 11.1652 29.8436 11.2459 29.7448C12.0085 28.8313 12.9697 28.4856 14.1354 28.7511C14.5818 28.8498 15.0097 28.9856 15.4562 29.0967C15.8158 29.1831 16.1754 29.1955 16.5661 29.1276C16.4483 29.5843 16.2064 29.9423 15.8592 30.2386C15.512 30.5349 15.1151 30.7139 14.6687 30.8065C14.8609 30.788 15.0593 30.7818 15.2453 30.7386C15.76 30.6213 16.2002 30.3559 16.5475 29.9547C16.5847 29.9115 16.6157 29.8806 16.6839 29.8991C17.6698 30.1769 18.4263 30.7509 18.941 31.6336C18.9534 31.6583 18.9658 31.683 18.9844 31.72C18.8603 31.7385 18.7487 31.757 18.6309 31.7817C17.8434 31.9113 17.1614 32.257 16.5413 32.7446C16.1878 33.0224 15.8406 33.3125 15.4686 33.5655C14.7121 34.0778 13.875 34.3124 12.9635 34.1643C12.3186 34.0593 11.7791 33.7507 11.3575 33.2569C11.1901 33.0656 11.0598 32.8372 10.911 32.6335C10.9296 32.6026 10.942 32.5841 10.9544 32.5718Z" fill="#C21B1A"/>
<path d="M17.2792 14.9372C17.366 15.1162 17.4528 15.2952 17.5334 15.4804C17.6512 15.7705 17.738 16.0791 17.8744 16.363C18.3829 17.4124 19.7471 17.8568 20.7826 17.3198C20.8074 17.3074 20.8322 17.2889 20.8632 17.2704C20.7392 17.1408 20.609 17.0297 20.4973 16.9C20.2493 16.6223 20.0881 16.2951 19.9703 15.9433C19.9083 15.7643 19.8525 15.5791 19.7843 15.4063C19.7161 15.2335 19.6292 15.0668 19.5486 14.894C19.9393 14.9249 20.2865 15.073 20.5966 15.3199C20.8818 14.5298 20.3795 13.3447 19.1208 13.2089C19.251 13.1843 19.3812 13.1472 19.5114 13.1349C20.6958 13.0238 21.6259 13.462 22.2645 14.4681C22.5064 14.8508 22.7172 15.252 22.9528 15.6409C23.1451 15.9557 23.3931 16.2149 23.7155 16.4433C23.3063 16.684 22.8846 16.7643 22.432 16.7334C21.9793 16.6964 21.5701 16.5482 21.1856 16.2951C21.3406 16.4186 21.4771 16.5544 21.6445 16.6531C22.0971 16.9309 22.587 17.0605 23.1202 17.0173C23.1761 17.0111 23.2195 17.0111 23.2567 17.0729C23.7527 17.9617 23.8829 18.8999 23.6225 19.8875C23.6163 19.9122 23.6039 19.943 23.5915 19.9801C23.4923 19.906 23.3931 19.8381 23.3001 19.7702C22.6552 19.3073 21.9235 19.0727 21.136 18.9801C20.6896 18.9308 20.2369 18.8937 19.7905 18.8073C18.8914 18.6407 18.1349 18.2148 17.5954 17.4679C17.211 16.9432 17.0497 16.3445 17.1055 15.6964C17.1241 15.4434 17.1924 15.1965 17.2358 14.9434C17.242 14.9372 17.2606 14.9372 17.2792 14.9372Z" fill="#C21B1A"/>
<path d="M29.8356 86.5001C29.9721 86.6112 30.0341 86.7778 30.0341 86.9877V87.1914C30.0341 87.4383 29.9224 87.6358 29.7054 87.784C29.4884 87.9321 29.1846 88 28.8001 88H27.9196V84.6978H28.8373C29.1722 84.6978 29.4388 84.7656 29.6372 84.9014C29.8356 85.0372 29.9349 85.2348 29.9349 85.4816V85.6915C29.9349 85.8582 29.879 86.0001 29.7736 86.1051C29.662 86.21 29.5318 86.2779 29.3706 86.2964H29.3768C29.5442 86.3211 29.6992 86.389 29.8356 86.5001ZM28.2793 84.9755V86.1915H28.9799C29.1598 86.1915 29.3024 86.1483 29.414 86.0557C29.5194 85.9631 29.5752 85.8458 29.5752 85.6853V85.5002C29.5752 85.3273 29.507 85.1977 29.3768 85.1051C29.2466 85.0125 29.0667 84.9693 28.8435 84.9693H28.2793V84.9755ZM29.6806 86.9877C29.6806 86.8272 29.6186 86.7038 29.4946 86.6112C29.3706 86.5186 29.2094 86.4754 29.0047 86.4754H28.2793V87.7284H28.8125C29.0916 87.7284 29.3086 87.679 29.4574 87.5864C29.6062 87.4938 29.6806 87.3581 29.6806 87.1791V86.9877ZM36.3216 86.9815H35.0256L34.7032 88H34.3374L35.4225 84.6978H35.9123L37.0347 88H36.6626L36.3216 86.9815ZM35.1187 86.6914H36.2286L35.6705 84.957L35.1187 86.6914ZM43.3966 88L42.6401 86.5989C42.6215 86.605 42.5905 86.605 42.5471 86.605H41.9147V88H41.5612V84.6978H42.5409C42.8882 84.6978 43.161 84.7718 43.3594 84.9261C43.564 85.0804 43.6633 85.2841 43.6633 85.5495V85.7656C43.6633 85.9507 43.6012 86.1174 43.4834 86.2532C43.3656 86.389 43.2044 86.4816 42.9936 86.5433L43.7935 88.0062H43.3966V88ZM43.1052 86.173C43.2416 86.0742 43.3036 85.9384 43.3036 85.7594V85.5619C43.3036 85.3829 43.2354 85.2409 43.099 85.1422C42.9564 85.0434 42.7704 84.9879 42.5347 84.9879H41.9209V86.3211H42.5471C42.7828 86.3211 42.9688 86.2717 43.1052 86.173ZM5.6094 81.4264C2.69506 81.4264 0.5 79.2228 0.5 76.3033C0.5 73.7356 2.32301 71.0074 5.70861 71.0074C8.55474 71.0074 10.7002 73.18 10.7002 76.0626C10.694 79.2228 8.60435 81.4264 5.6094 81.4264ZM5.39237 71.4147C3.68097 71.4147 1.95097 72.7974 1.95097 75.8836C1.95097 78.8525 3.59416 81.0067 5.86363 81.0067C7.99668 81.0067 9.27403 79.3216 9.27403 76.507C9.27403 72.9887 7.327 71.4147 5.39237 71.4147ZM30.1643 81.2227C30.9518 80.34 31.7579 79.3957 32.6198 78.3834L34.0645 76.7045C34.418 76.2724 34.697 76.2169 34.9202 76.2169H35.0939V79.2722C35.0939 80.6486 34.9388 80.8215 33.6491 80.8462L33.5933 81.1918H37.7106L37.7726 80.9326C36.4084 80.8153 36.2534 80.6487 36.2534 79.266V76.3033L36.3402 76.2107H36.427C36.6502 76.2107 36.9293 76.2724 37.2827 76.6983L38.7275 78.3834C39.5894 79.3895 40.4017 80.34 41.121 81.1918H43.5578L43.6199 80.9326C42.6401 80.8215 42.4169 80.698 41.5922 79.8154C40.7799 78.9574 39.0561 76.9761 37.847 75.433C38.8515 74.4516 40.073 73.2665 40.5381 72.8159C41.5922 71.7357 42.0201 71.6369 43.1424 71.5814V71.2357H39.4902L39.4282 71.495L39.8684 71.5444C40.2467 71.5999 40.4327 71.6863 40.4885 71.8406C40.5505 72.0011 40.4575 72.1986 40.1722 72.5196C39.4964 73.285 38.4795 74.3158 37.5183 75.2231C37.0161 75.7046 36.6564 75.9329 36.3402 75.9638L36.241 75.9761V73.1986C36.241 71.7666 36.489 71.6184 37.6858 71.5937L37.7416 71.2481H33.6243L33.5623 71.5073C34.8334 71.6246 35.0815 71.7666 35.0815 73.2047V75.9823L34.9822 75.97C34.666 75.9391 34.3002 75.7107 33.8041 75.2293C32.843 74.3219 31.8261 73.285 31.1502 72.5258C30.865 72.2048 30.7719 72.0073 30.834 71.8468C30.8898 71.6925 31.0758 71.6061 31.4602 71.5505L31.8199 71.5937V71.2481H28.1676L28.1056 71.5073C29.3086 71.6493 29.7364 71.748 30.7905 72.8282C31.2618 73.2788 32.4833 74.4701 33.4941 75.5688C32.2911 76.9884 30.5673 78.9698 29.7488 79.8339C28.9303 80.7165 28.7009 80.84 27.8018 80.8647V81.2165L30.1643 81.2227ZM49.1943 81.3338L56.0337 73.0196V77.1674C56.0337 78.5007 55.9903 79.192 55.9531 79.729C55.9159 80.6363 55.3764 80.8462 54.4153 80.8462C54.4091 80.8462 54.4091 80.8462 54.4029 80.8462V81.1918H58.0551L58.1171 80.9326C57.2056 80.8585 56.6972 80.6548 56.629 79.7783C56.5732 79.1796 56.5484 78.3895 56.5484 77.1489V73.1677C56.5484 72.748 56.5732 72.464 56.877 72.0875C57.187 71.6863 57.5157 71.5814 58.204 71.5814C58.2226 71.5814 58.2412 71.5814 58.2536 71.5814V71.2357L56.0585 71.2049L49.2563 79.2352V75.1737C49.2563 73.5812 49.2935 72.9702 49.3369 72.5751C49.3865 71.8283 49.771 71.5814 50.9553 71.5814C50.9677 71.5814 50.9863 71.5814 50.9987 71.5814V71.2357H47.2845L47.2225 71.495C48.2518 71.6061 48.63 71.7851 48.6796 72.5628L48.6858 72.8159C48.7044 73.2911 48.723 73.9516 48.723 75.1737V81.34L49.1943 81.3338ZM66.854 81.1918L66.916 80.9326C65.6014 80.803 65.4092 80.6919 65.4092 79.3154V72.9702C65.4092 72.0011 65.558 71.711 66.5191 71.6987C66.5191 71.6987 67.6911 71.6863 67.7531 71.6863C68.5592 71.6863 68.832 71.7851 69.2103 72.1986C69.6505 72.6554 69.9853 73.3405 70.0784 73.7788L70.5 73.7541C70.4008 73.2665 69.9295 71.6369 69.8675 71.2357H62.6499L62.5879 71.495C64.0388 71.6369 64.2187 71.7357 64.2187 73.1245V79.3154C64.2187 80.6919 64.0326 80.803 62.8049 80.8462V81.1918H66.854ZM23.7713 71.2296H20.1935H15.4251C15.4251 71.2296 15.3073 72.6492 15.2267 73.4887L15.5554 73.4455C15.7352 72.927 15.8592 72.5813 16.039 72.285C16.3367 71.7666 16.6467 71.6801 17.4962 71.6801H19.0092V79.3648C19.0092 80.6672 18.8231 80.84 17.428 80.8462V81.1918H21.8305L21.8925 80.9326C20.3857 80.84 20.1935 80.661 20.1935 79.3648V73.9269V71.6863H21.7065C22.556 71.6863 22.866 71.7727 23.1637 72.2912C23.3435 72.5875 23.4613 72.9331 23.6473 73.4516L23.976 73.4948C23.8891 72.6492 23.7713 71.2296 23.7713 71.2296Z" fill="white"/>
</g>
<defs>
<clipPath id="clip0_160_3085">
<rect width="70" height="88" fill="white" transform="translate(0.5)"/>
</clipPath>
</defs>
</svg>
