<svg width="81" height="81" viewBox="0 0 81 81" fill="none" xmlns="http://www.w3.org/2000/svg">
<path d="M18.0269 55.3702C15.8194 57.5729 15.5854 60.9073 17.5081 62.817C19.4308 64.7266 22.7981 64.4943 25.0056 62.3016C25.1785 62.1299 25.3311 61.948 25.4837 61.7661L18.5661 54.8953L18.0269 55.3702Z" fill="#AA1916"/>
<path d="M13.7014 35.192C10.5682 35.192 8.0249 37.3846 8.0249 40.0926C8.0249 42.8005 10.5682 44.9931 13.7014 44.9931C13.9354 44.9931 14.1796 44.9931 14.4136 44.9931V35.2324C14.1773 35.2039 13.9394 35.1904 13.7014 35.192V35.192Z" fill="#AA1916"/>
<path d="M25.0056 17.8838C23.8886 16.7513 22.3694 16.0984 20.7736 16.0651C20.1702 16.0552 19.5708 16.1644 19.0103 16.3864C18.4497 16.6084 17.9391 16.9388 17.5081 17.3584C15.5854 19.2681 15.8194 22.6126 18.0269 24.8052C18.1999 24.977 18.383 25.1285 18.5661 25.2801L25.4837 18.4093C25.3352 18.2247 25.1755 18.0492 25.0056 17.8838V17.8838Z" fill="#AA1916"/>
<path d="M45.3002 13.6097C45.3002 10.5077 43.0927 7.98169 40.3663 7.98169C37.6399 7.98169 35.4426 10.5077 35.4426 13.6097C35.4277 13.8486 35.4277 14.0882 35.4426 14.3271H45.3002C45.3151 14.0882 45.3151 13.8486 45.3002 13.6097Z" fill="#AA1916"/>
<path d="M62.7564 24.8049C64.9639 22.6123 65.1979 19.2678 63.2752 17.3581C62.843 16.9373 62.3308 16.6062 61.7683 16.3841C61.2059 16.1621 60.6046 16.0535 59.9995 16.0648C58.4058 16.0942 56.8884 16.7479 55.7777 17.8835C55.6078 18.0489 55.4481 18.2244 55.2996 18.4089L62.2172 25.2798C62.4003 25.1282 62.5936 24.9767 62.7564 24.8049Z" fill="#AA1916"/>
<path d="M67.0792 44.9928C70.2125 44.9928 72.7557 42.7901 72.7557 40.0923C72.7557 37.3945 70.2125 35.1918 67.0792 35.1918C66.8387 35.177 66.5975 35.177 66.3569 35.1918V44.9322C66.5962 44.9672 66.8374 44.9874 67.0792 44.9928Z" fill="#AA1916"/>
<path d="M55.7777 62.3016C57.9852 64.4943 61.3525 64.7266 63.2752 62.817C65.1979 60.9073 64.9639 57.5729 62.7564 55.3702L62.2172 54.8953L55.2996 61.7661C55.4725 61.948 55.6048 62.1097 55.7777 62.3016Z" fill="#AA1916"/>
<path d="M35.5038 65.8888C35.4886 66.1277 35.4886 66.3673 35.5038 66.6062C35.4988 66.6903 35.4988 66.7747 35.5038 66.8588L35.5836 65.8484L35.5038 65.8888Z" fill="#AA1916"/>
<path d="M35.4722 66.8584C35.5942 69.8897 37.7509 72.2339 40.3857 72.2339C43.0206 72.2339 45.3196 69.7078 45.3196 66.6058C45.3351 66.3669 45.3351 66.1273 45.3196 65.8884H35.5943L35.4722 66.8584Z" fill="#AA1916"/>
<path d="M80.0921 37.4259V39.7095H73.5C73.2762 36.7692 70.4481 34.4351 67.0808 34.4351C62.6759 34.4351 58.4338 38.2242 57.1723 39.4872C55.8085 38.0618 54.7068 36.41 53.917 34.6069V34.5563C53.1831 32.7286 52.7868 30.7845 52.7471 28.8172C54.5172 28.8172 60.2649 28.4635 63.327 25.412C64.5159 24.2628 65.2397 22.7207 65.3616 21.0774C65.4781 19.6626 65.0244 18.2598 64.1001 17.1771L68.7696 12.5393L70.3972 14.156L70.9364 13.6205L67.1419 9.85159L66.6027 10.3871L68.2304 12.0038L63.561 16.6416C61.3026 14.7218 57.6708 15.0249 55.2699 17.4095C52.1468 20.5115 51.8518 26.1699 51.8315 27.928C49.8553 27.8778 47.8523 27.4845 46.0125 26.766C44.1971 25.9816 42.5341 24.8872 41.099 23.5327C42.3299 22.2697 46.1855 17.9956 46.1855 13.6912C46.1855 10.3063 43.8253 7.53773 40.865 7.31544V0.767913H43.1641V0H37.8029V0.767913H40.102V7.31544C37.1315 7.53773 34.7815 10.3467 34.7815 13.6912C34.7815 18.0663 38.6066 22.2798 39.868 23.5327C38.4383 24.8892 36.7274 25.9839 34.9138 26.766C33.0311 27.4741 31.0366 27.8436 29.0236 27.8573C29.0236 26.0991 28.6675 20.3903 25.5953 17.3388C24.4345 16.1572 22.8786 15.4384 21.2209 15.318C20.5172 15.2609 19.8091 15.3422 19.137 15.5572C18.465 15.7721 17.8422 16.1166 17.3043 16.5709L12.6349 11.9331L14.2626 10.3164L13.7234 9.78087L9.92885 13.5497L10.468 14.0853L12.0957 12.4686L16.7651 17.1064C16.3055 17.6413 15.9574 18.2615 15.7409 18.9309C15.5243 19.6004 15.4437 20.306 15.5037 21.0066C15.6255 22.65 16.3494 24.1921 17.5383 25.3413C20.6614 28.4433 26.3583 28.7363 28.1182 28.7565C28.0727 30.72 27.6766 32.6598 26.9483 34.4856V34.5361C26.1549 36.3397 25.0497 37.9914 23.6828 39.4165C22.4213 38.1939 18.1181 34.3644 13.7844 34.3644C10.3765 34.3644 7.58907 36.6984 7.36526 39.6388H0.762976V37.3552H0V42.6902H0.762976V40.3966H7.36526C7.58907 43.347 10.4172 45.6811 13.7844 45.6811C18.1893 45.6811 22.4315 41.8819 23.6929 40.629C25.0579 42.0535 26.1598 43.7055 26.9483 45.5093C27.6765 47.3387 28.0726 49.2818 28.1182 51.2485C26.3583 51.2485 20.6105 51.6021 17.5383 54.6536C16.3487 55.8065 15.625 57.352 15.5037 58.9984C15.4031 59.7314 15.4589 60.4773 15.6674 61.1876C15.876 61.8978 16.2326 62.5565 16.7142 63.1209L12.0448 67.7587L10.4172 66.1421L9.87798 66.6776L13.6725 70.4464L14.2117 69.9109L12.584 68.2942L17.2534 63.6665C18.234 64.497 19.4847 64.9458 20.7733 64.9296H21.17C22.8277 64.8091 24.3837 64.0903 25.5444 62.9087C28.6675 59.8168 28.9626 54.1484 28.9829 52.4004C30.9597 52.4455 32.9127 52.839 34.751 53.5623H34.8019C36.6177 54.3504 38.2807 55.4481 39.7154 56.8058C38.4845 58.0587 34.6289 62.3328 34.6289 66.6473C34.6289 70.0221 36.9789 72.7906 39.9494 73.0129V79.5705H37.6503V80.298H43.0115V79.5402H40.7124V72.9826C43.6727 72.7603 46.0329 69.9513 46.0329 66.617C46.0329 62.2317 42.2078 58.0183 40.9464 56.7654C42.3787 55.4121 44.0382 54.3179 45.8498 53.532H45.9006C47.7422 52.8077 49.6987 52.4143 51.6789 52.37C51.6789 54.1282 52.035 59.8269 55.1072 62.8784C56.3635 64.1496 58.0749 64.876 59.8682 64.8992C61.1582 64.9162 62.4112 64.4715 63.3982 63.6463L68.0676 68.2741L66.4399 69.8907L66.9791 70.4262L70.7736 66.6574L70.2345 66.1219L68.6068 67.7385L64.0696 63.1209C64.5279 62.5872 64.8754 61.9688 65.0919 61.3011C65.3084 60.6334 65.3897 59.9298 65.3311 59.2308C65.2098 57.5843 64.4861 56.0389 63.2965 54.886C60.1734 51.784 54.4765 51.491 52.7165 51.4809C52.7611 49.5141 53.1572 47.5708 53.8864 45.7417C54.6749 43.9379 55.7769 42.2859 57.1418 40.8614C58.4134 42.0739 62.7166 45.9135 67.0503 45.9135C70.4583 45.9135 73.2457 43.5794 73.4695 40.629H80.0616V42.9226H80.9059V37.5876L80.0921 37.4259ZM66.3586 44.9334V35.2333C66.5991 35.2185 66.8403 35.2185 67.0808 35.2333C70.2141 35.2333 72.7574 37.4259 72.7574 40.1339C72.7574 42.8418 70.2141 45.0344 67.0808 45.0344C66.8382 45.0156 66.597 44.9819 66.3586 44.9334ZM51.8315 51.4303C49.7327 51.4985 47.6641 51.9471 45.7277 52.754H45.6565H45.5853C43.6579 53.5414 41.8872 54.6637 40.3563 56.0682C38.8309 54.6616 37.0632 53.539 35.1376 52.754H35.0664H34.9951C33.0746 51.9531 31.0238 51.5046 28.9422 51.4303C28.8674 49.3628 28.4159 47.3259 27.6095 45.4184V45.3476V45.2769C26.8193 43.3643 25.689 41.6085 24.2728 40.0935C25.6925 38.5772 26.8231 36.8175 27.6095 34.8999V34.8393V34.7685C28.4206 32.8448 28.8722 30.7905 28.9422 28.706C31.0238 28.6318 33.217 28.1833 35.1376 27.3824C37.069 26.6027 38.8409 25.4796 40.3665 24.0682C41.8921 25.4796 43.664 26.6027 45.5954 27.3824C47.5318 28.1893 49.7428 28.6379 51.8416 28.706C51.9174 30.7702 52.3689 32.8036 53.1743 34.7079V34.7888V34.8494C53.9569 36.769 55.0879 38.5294 56.5111 40.0429C55.0902 41.5545 53.9594 43.3111 53.1743 45.2264V45.2971V45.3678C52.3572 47.2936 51.9021 49.3518 51.8315 51.4405V51.4303ZM62.7573 24.7957C62.5844 24.9675 62.4012 25.119 62.2181 25.2706L55.3005 18.3997C55.449 18.2152 55.6087 18.0397 55.7786 17.8743C56.8893 16.7387 58.4067 16.085 60.0004 16.0556C60.6055 16.0443 61.2068 16.1529 61.7692 16.3749C62.3317 16.597 62.8439 16.9281 63.2761 17.3489C65.1988 19.2687 64.9648 22.6132 62.7573 24.8058V24.7957ZM54.8325 19.0262L61.5772 25.7354C58.5253 27.7562 53.8966 27.9684 52.564 27.9886C52.5843 26.6751 52.7776 22.108 54.8325 19.0363V19.0262ZM45.3004 14.2974H35.5241C35.5092 14.0585 35.5092 13.8189 35.5241 13.58C35.5241 10.4781 37.7317 7.952 40.4479 7.952C43.1641 7.952 45.3004 10.4781 45.3004 13.6104C45.3141 13.8392 45.3141 14.0686 45.3004 14.2974ZM35.6361 15.0552H45.1783C44.4459 18.6321 41.3329 22.0272 40.4072 22.9769C39.4611 22.0373 36.3482 18.6624 35.6157 15.0552H35.6361ZM18.0469 24.8058C15.8394 22.6132 15.6054 19.2687 17.5281 17.359C17.9591 16.9394 18.4697 16.609 19.0302 16.387C19.5908 16.165 20.1902 16.0558 20.7936 16.0657C22.3895 16.099 23.9086 16.7519 25.0256 17.8844C25.1955 18.0498 25.3552 18.2253 25.5037 18.4098L18.5861 25.2807C18.3826 25.1291 18.1995 24.9776 18.0266 24.8058H18.0469ZM19.2168 25.7455L25.9615 19.0363C27.9961 22.0676 28.2098 26.665 28.2301 27.9886C26.8771 27.9785 22.2891 27.7562 19.1965 25.7354L19.2168 25.7455ZM14.4355 35.2333V44.9334C14.2015 44.9334 13.9574 44.9334 13.7234 44.9334C10.5901 44.9334 8.04685 42.7306 8.04685 40.0328C8.04685 37.335 10.5901 35.1323 13.7234 35.1323C13.9559 35.1516 14.1869 35.1853 14.4152 35.2333H14.4355ZM15.2086 44.8323V35.3546C18.8099 36.0821 22.228 39.174 23.1843 40.0935C22.2178 41.023 18.8506 44.1149 15.1883 44.8323H15.2086ZM18.0469 55.371L18.5861 54.8961L25.5037 61.7669C25.3511 61.9488 25.1986 62.1307 25.0256 62.3025C22.8181 64.4951 19.4508 64.7275 17.5281 62.8178C15.6054 60.9081 15.7987 57.5737 18.0266 55.371H18.0469ZM25.9615 61.1506L19.2168 54.4414C22.2687 52.4206 26.8974 52.2084 28.2301 52.1882C28.1996 53.5118 28.0063 58.0688 25.9717 61.1506H25.9615ZM35.4835 66.6069C35.468 66.368 35.468 66.1283 35.4835 65.8895H45.3004C45.3159 66.1283 45.3159 66.368 45.3004 66.6069C45.3004 69.7088 43.0929 72.2349 40.3665 72.2349C37.6401 72.2349 35.575 69.8503 35.4529 66.8595C35.4513 66.7751 35.4546 66.6908 35.4631 66.6069H35.4835ZM45.1885 65.1215H35.6361C36.3787 61.5446 39.4815 58.1496 40.4174 57.1998C41.3228 58.1395 44.4357 61.5042 45.1682 65.1417L45.1885 65.1215ZM62.7776 55.371C64.9852 57.5737 65.2192 60.9081 63.2965 62.8178C61.3738 64.7275 58.0065 64.4951 55.799 62.3025C55.626 62.1307 55.4734 61.9488 55.3208 61.7669L62.2385 54.8961L62.7776 55.371ZM61.6077 54.4414L54.8427 61.1001C52.8081 58.0688 52.5945 53.4714 52.5741 52.1478C53.9068 52.1983 58.5253 52.3903 61.5772 54.4414H61.6077ZM65.6159 35.3445V44.8323C62.0147 44.0947 58.5965 41.0129 57.6403 40.0935C58.5253 39.1639 61.9435 36.072 65.6464 35.3445H65.6159Z" fill="#C98928"/>
</svg>
