<svg width="21" height="21" viewBox="0 0 21 21" fill="none" xmlns="http://www.w3.org/2000/svg">
<path d="M0.335266 8.60461C0.335266 4.32441 3.80506 0.854614 8.08527 0.854614C12.3655 0.854614 15.8353 4.32441 15.8353 8.60461C15.8353 12.8848 12.3655 16.3546 8.08527 16.3546C3.80506 16.3546 0.335266 12.8848 0.335266 8.60461Z" fill="#2C303A"/>
<path d="M14.9066 14.2226C15.2497 13.8795 15.7897 13.8322 16.1872 14.1105L20.0389 16.8067C20.9303 17.4307 21.0422 18.7083 20.2728 19.4778L19.9584 19.7921C19.189 20.5616 17.9113 20.4497 17.2873 19.5583L14.5911 15.7065C14.3129 15.309 14.3601 14.7691 14.7032 14.426L14.9066 14.2226Z" fill="#2C303A"/>
</svg>
